REM DIRINDEX 1\2,1\4,1\5,1\6,1\7,1\3\8,1\3\9,1\3\10
REM DIRNAME folder01,folder02,folder03,folder04,folder05,folder06,folder07,folder08,folder09,folder10
TITLE ""
FILE "DB4500_5th_6C_24.mp3" MP3
  TRACK 01 AUDIO
    TITLE "0:"
    INDEX 01 00:00:00
  TRACK 02 AUDIO
    TITLE "8:cjc113_4250"
    INDEX 01 00:00:01
  TRACK 03 AUDIO
    TITLE "0:"
    INDEX 01 00:01:36
  TRACK 04 AUDIO
    TITLE "9:cjc113_4251"
    INDEX 01 00:01:42
  TRACK 05 AUDIO
    TITLE "0:"
    INDEX 01 00:02:71
  TRACK 06 AUDIO
    TITLE "10:cjc113_4252"
    INDEX 01 00:03:00
  TRACK 07 AUDIO
    TITLE "0:"
    INDEX 01 00:06:49
  TRACK 08 AUDIO
    TITLE "8:cjc113_4253"
    INDEX 01 00:07:03
  TRACK 09 AUDIO
    TITLE "0:"
    INDEX 01 00:08:30
  TRACK 10 AUDIO
    TITLE "9:cjc113_4254"
    INDEX 01 00:08:38
  TRACK 11 AUDIO
    TITLE "0:"
    INDEX 01 00:09:71
  TRACK 12 AUDIO
    TITLE "10:cjc113_4255"
    INDEX 01 00:10:06
  TRACK 13 AUDIO
    TITLE "0:"
    INDEX 01 00:12:30
  TRACK 14 AUDIO
    TITLE "8:cjc113_4256"
    INDEX 01 00:12:61
  TRACK 15 AUDIO
    TITLE "0:"
    INDEX 01 00:13:71
  TRACK 16 AUDIO
    TITLE "9:cjc113_4257"
    INDEX 01 00:14:07
  TRACK 17 AUDIO
    TITLE "0:"
    INDEX 01 00:15:38
  TRACK 18 AUDIO
    TITLE "10:cjc113_4258"
    INDEX 01 00:15:46
  TRACK 19 AUDIO
    TITLE "0:"
    INDEX 01 00:18:31
  TRACK 20 AUDIO
    TITLE "8:cjc113_4259"
    INDEX 01 00:18:64
  TRACK 21 AUDIO
    TITLE "0:"
    INDEX 01 00:19:73
  TRACK 22 AUDIO
    TITLE "9:cjc113_4260"
    INDEX 01 00:20:06
  TRACK 23 AUDIO
    TITLE "0:"
    INDEX 01 00:21:35
  TRACK 24 AUDIO
    TITLE "10:cjc113_4261"
    INDEX 01 00:21:45
  TRACK 25 AUDIO
    TITLE "0:"
    INDEX 01 00:24:35
  TRACK 26 AUDIO
    TITLE "8:cjc113_4262"
    INDEX 01 00:24:67
  TRACK 27 AUDIO
    TITLE "0:"
    INDEX 01 00:26:05
  TRACK 28 AUDIO
    TITLE "9:cjc113_4263"
    INDEX 01 00:26:13
  TRACK 29 AUDIO
    TITLE "0:"
    INDEX 01 00:27:28
  TRACK 30 AUDIO
    TITLE "10:cjc113_4264"
    INDEX 01 00:27:36
  TRACK 31 AUDIO
    TITLE "0:"
    INDEX 01 00:29:44
  TRACK 32 AUDIO
    TITLE "8:cjc113_4265"
    INDEX 01 00:30:01
  TRACK 33 AUDIO
    TITLE "0:"
    INDEX 01 00:31:14
  TRACK 34 AUDIO
    TITLE "9:cjc113_4266"
    INDEX 01 00:31:24
  TRACK 35 AUDIO
    TITLE "0:"
    INDEX 01 00:32:41
  TRACK 36 AUDIO
    TITLE "10:cjc113_4267"
    INDEX 01 00:32:50
  TRACK 37 AUDIO
    TITLE "0:"
    INDEX 01 00:36:17
  TRACK 38 AUDIO
    TITLE "8:cjc113_4268"
    INDEX 01 00:36:52
  TRACK 39 AUDIO
    TITLE "0:"
    INDEX 01 00:39:03
  TRACK 40 AUDIO
    TITLE "9:cjc113_4269"
    INDEX 01 00:39:07
  TRACK 41 AUDIO
    TITLE "0:"
    INDEX 01 00:40:17
  TRACK 42 AUDIO
    TITLE "10:cjc113_4270"
    INDEX 01 00:40:24
  TRACK 43 AUDIO
    TITLE "0:"
    INDEX 01 00:43:23
  TRACK 44 AUDIO
    TITLE "8:cjc113_4271"
    INDEX 01 00:43:52
  TRACK 45 AUDIO
    TITLE "0:"
    INDEX 01 00:44:63
  TRACK 46 AUDIO
    TITLE "9:cjc113_4272"
    INDEX 01 00:44:71
  TRACK 47 AUDIO
    TITLE "0:"
    INDEX 01 00:46:06
  TRACK 48 AUDIO
    TITLE "10:cjc113_4273"
    INDEX 01 00:46:13
  TRACK 49 AUDIO
    TITLE "0:"
    INDEX 01 00:50:25
  TRACK 50 AUDIO
    TITLE "8:cjc113_4274"
    INDEX 01 00:50:56
  TRACK 51 AUDIO
    TITLE "0:"
    INDEX 01 00:51:73
  TRACK 52 AUDIO
    TITLE "9:cjc113_4275"
    INDEX 01 00:52:06
  TRACK 53 AUDIO
    TITLE "0:"
    INDEX 01 00:53:29
  TRACK 54 AUDIO
    TITLE "10:cjc113_4276"
    INDEX 01 00:53:41
  TRACK 55 AUDIO
    TITLE "0:"
    INDEX 01 00:57:31
  TRACK 56 AUDIO
    TITLE "8:cjc113_4277"
    INDEX 01 00:57:62
  TRACK 57 AUDIO
    TITLE "0:"
    INDEX 01 00:59:12
  TRACK 58 AUDIO
    TITLE "9:cjc113_4278"
    INDEX 01 00:59:20
  TRACK 59 AUDIO
    TITLE "0:"
    INDEX 01 01:00:35
  TRACK 60 AUDIO
    TITLE "10:cjc113_4279"
    INDEX 01 01:00:41
  TRACK 61 AUDIO
    TITLE "0:"
    INDEX 01 01:04:07
  TRACK 62 AUDIO
    TITLE "8:cjc113_4280"
    INDEX 01 01:04:58
  TRACK 63 AUDIO
    TITLE "0:"
    INDEX 01 01:06:06
  TRACK 64 AUDIO
    TITLE "9:cjc113_4281"
    INDEX 01 01:06:14
  TRACK 65 AUDIO
    TITLE "0:"
    INDEX 01 01:07:31
  TRACK 66 AUDIO
    TITLE "10:cjc113_4282"
    INDEX 01 01:07:39
  TRACK 67 AUDIO
    TITLE "0:"
    INDEX 01 01:12:17
  TRACK 68 AUDIO
    TITLE "8:cjc113_4283"
    INDEX 01 01:12:46
  TRACK 69 AUDIO
    TITLE "0:"
    INDEX 01 01:13:55
  TRACK 70 AUDIO
    TITLE "9:cjc113_4284"
    INDEX 01 01:13:63
  TRACK 71 AUDIO
    TITLE "0:"
    INDEX 01 01:14:68
  TRACK 72 AUDIO
    TITLE "10:cjc113_4285"
    INDEX 01 01:14:74
  TRACK 73 AUDIO
    TITLE "0:"
    INDEX 01 01:17:53
  TRACK 74 AUDIO
    TITLE "8:cjc113_4286"
    INDEX 01 01:18:11
  TRACK 75 AUDIO
    TITLE "0:"
    INDEX 01 01:19:19
  TRACK 76 AUDIO
    TITLE "9:cjc113_4287"
    INDEX 01 01:19:27
  TRACK 77 AUDIO
    TITLE "0:"
    INDEX 01 01:20:44
  TRACK 78 AUDIO
    TITLE "10:cjc113_4288"
    INDEX 01 01:20:49
  TRACK 79 AUDIO
    TITLE "0:"
    INDEX 01 01:25:17
  TRACK 80 AUDIO
    TITLE "8:cjc113_4289"
    INDEX 01 01:25:57
  TRACK 81 AUDIO
    TITLE "0:"
    INDEX 01 01:26:62
  TRACK 82 AUDIO
    TITLE "9:cjc113_4290"
    INDEX 01 01:26:70
  TRACK 83 AUDIO
    TITLE "0:"
    INDEX 01 01:28:25
  TRACK 84 AUDIO
    TITLE "10:cjc113_4291"
    INDEX 01 01:28:33
  TRACK 85 AUDIO
    TITLE "0:"
    INDEX 01 01:32:15
